<?xml version="1.0" encoding="UTF-8" standalone="no" ?>
<!DOCTYPE svg PUBLIC "-//W3C//DTD SVG 1.1//EN" "http://www.w3.org/Graphics/SVG/1.1/DTD/svg11.dtd">
<svg xmlns="http://www.w3.org/2000/svg" xmlns:xlink="http://www.w3.org/1999/xlink" version="1.1" width="1080" height="1080" viewBox="0 0 1080 1080" xml:space="preserve">
<desc>Created with Fabric.js 5.2.4</desc>
<defs>
</defs>
<g transform="matrix(1 0 0 1 540 540)" id="a20524c3-4037-4670-b08c-047cb1269a5a"  >
<rect style="stroke: none; stroke-width: 1; stroke-dasharray: none; stroke-linecap: butt; stroke-dashoffset: 0; stroke-linejoin: miter; stroke-miterlimit: 4; fill: rgb(255,255,255); fill-rule: nonzero; opacity: 1; visibility: hidden;" vector-effect="non-scaling-stroke"  x="-540" y="-540" rx="0" ry="0" width="1080" height="1080" />
</g>
<g transform="matrix(1 0 0 1 540 540)" id="2864a046-339d-463d-961e-583b54464d3b"  >
</g>
<g transform="matrix(45 0 0 45 540 540)"  >
<path style="stroke: rgb(104,100,108); stroke-width: 1.5; stroke-dasharray: none; stroke-linecap: round; stroke-dashoffset: 0; stroke-linejoin: round; stroke-miterlimit: 4; fill: none; fill-rule: nonzero; opacity: 1;"  transform=" translate(-12, -12)" d="M 3.375 19.5 L 20.625 19.5 M 3.375 19.5 C 2.753679656440357 19.5 2.25 18.996320343559642 2.25 18.375 M 3.375 19.5 L 4.875 19.5 C 5.496 19.5 6 18.996 6 18.375 M 2.25 18.375 L 2.25 5.625 M 2.25 18.375 L 2.25 16.875 C 2.25 16.254 2.754 15.75 3.375 15.75 M 21.75 18.375 L 21.75 5.625 M 21.75 18.375 C 21.75 18.996 21.246 19.5 20.625 19.5 M 21.75 18.375 L 21.75 16.875 C 21.75 16.254 21.246 15.75 20.625 15.75 M 20.625 19.5 L 19.125 19.5 C 18.503679656440358 19.5 18 18.996320343559642 18 18.375 M 20.625 4.5 L 3.375 4.5 M 20.625 4.5 C 21.246 4.5 21.75 5.004 21.75 5.625 M 20.625 4.5 L 19.125 4.5 C 18.504 4.5 18 5.004 18 5.625 M 21.75 5.625 L 21.75 7.125 C 21.75 7.746 21.246 8.25 20.625 8.25 M 3.375 4.5 C 2.754 4.5 2.25 5.004 2.25 5.625 M 3.375 4.5 L 4.875 4.5 C 5.496 4.5 6 5.004 6 5.625 M 2.25 5.625 L 2.25 7.125 C 2.25 7.746 2.754 8.25 3.375 8.25 M 3.375 8.25 L 4.875 8.25 M 3.375 8.25 C 2.754 8.25 2.25 8.754 2.25 9.375 L 2.25 10.875 C 2.25 11.496 2.754 12 3.375 12 M 4.875 8.25 C 5.496 8.25 6 7.746 6 7.125 L 6 5.625 M 4.875 8.25 C 5.496 8.25 6 8.754 6 9.375 L 6 10.875 M 6 5.625 L 6 10.875 M 6 5.625 C 6 5.004 6.504 4.5 7.125 4.5 L 16.875 4.5 C 17.496 4.5 18 5.004 18 5.625 M 19.125 8.25 L 20.625 8.25 M 19.125 8.25 C 18.503679656440358 8.25 18 7.746320343559643 18 7.125 L 18 5.625 M 19.125 8.25 C 18.504 8.25 18 8.754 18 9.375 L 18 10.875 M 20.625 8.25 C 21.246 8.25 21.75 8.754 21.75 9.375 L 21.75 10.875 C 21.75 11.496 21.246 12 20.625 12 M 18 5.625 L 18 10.875 M 7.125 12 L 16.875 12 M 7.125 12 C 6.503679656440357 12 6 11.496320343559642 6 10.875 M 7.125 12 C 6.504 12 6 12.504 6 13.125 M 6 10.875 C 6 11.496 5.496 12 4.875 12 M 18 10.875 C 18 11.496 17.496 12 16.875 12 M 18 10.875 C 18 11.496 18.504 12 19.125 12 M 16.875 12 C 17.496 12 18 12.504 18 13.125 M 6 18.375 L 6 13.125 M 6 18.375 C 6 18.996 6.504 19.5 7.125 19.5 L 16.875 19.5 C 17.496 19.5 18 18.996 18 18.375 M 6 18.375 L 6 16.875 C 6 16.254 5.496 15.75 4.875 15.75 M 18 18.375 L 18 13.125 M 18 18.375 L 18 16.875 C 18 16.254 18.504 15.75 19.125 15.75 M 18 13.125 L 18 14.625 C 18 15.246 18.504 15.75 19.125 15.75 M 18 13.125 C 18 12.504 18.504 12 19.125 12 M 6 13.125 L 6 14.625 C 6 15.246 5.496 15.75 4.875 15.75 M 6 13.125 C 6 12.504 5.496 12 4.875 12 M 3.375 12 L 4.875 12 M 3.375 12 C 2.754 12 2.25 12.504 2.25 13.125 L 2.25 14.625 C 2.25 15.246 2.754 15.75 3.375 15.75 M 19.125 12 L 20.625 12 M 20.625 12 C 21.246 12 21.75 12.504 21.75 13.125 L 21.75 14.625 C 21.75 15.246 21.246 15.75 20.625 15.75 M 3.375 15.75 L 4.875 15.75 M 19.125 15.75 L 20.625 15.75" stroke-linecap="round" />
</g>
<g transform="matrix(NaN NaN NaN NaN 0 0)"  >
<g style=""   >
</g>
</g>
</svg>