<?xml version="1.0" encoding="UTF-8" standalone="no" ?>
<!DOCTYPE svg PUBLIC "-//W3C//DTD SVG 1.1//EN" "http://www.w3.org/Graphics/SVG/1.1/DTD/svg11.dtd">
<svg xmlns="http://www.w3.org/2000/svg" xmlns:xlink="http://www.w3.org/1999/xlink" version="1.1" width="1080" height="1080" viewBox="0 0 1080 1080" xml:space="preserve">
<desc>Created with Fabric.js 5.2.4</desc>
<defs>
</defs>
<g transform="matrix(1 0 0 1 540 540)" id="a9f31835-a061-415e-94e2-812419574cdc"  >
<rect style="stroke: none; stroke-width: 1; stroke-dasharray: none; stroke-linecap: butt; stroke-dashoffset: 0; stroke-linejoin: miter; stroke-miterlimit: 4; fill: rgb(255,255,255); fill-rule: nonzero; opacity: 1; visibility: hidden;" vector-effect="non-scaling-stroke"  x="-540" y="-540" rx="0" ry="0" width="1080" height="1080" />
</g>
<g transform="matrix(1 0 0 1 540 540)" id="91c9c120-fd13-4417-8dc4-1f9349615687"  >
</g>
<g transform="matrix(1 0 0 1 540 540)"  >
<g style=""   >
		<g transform="matrix(1 0 0 1 0 0)" id="eac06c32-b776-4baf-b7ea-d930ecd11059"  >
<rect style="stroke: none; stroke-width: 1; stroke-dasharray: none; stroke-linecap: butt; stroke-dashoffset: 0; stroke-linejoin: miter; stroke-miterlimit: 4; fill: rgb(0,0,0); fill-rule: nonzero; opacity: 1; visibility: hidden;" vector-effect="non-scaling-stroke"  x="-540" y="-540" rx="0" ry="0" width="1080" height="1080" />
</g>
		<g transform="matrix(45 0 0 45 0.16 0.16)"  >
<path style="stroke: none; stroke-width: 1; stroke-dasharray: none; stroke-linecap: butt; stroke-dashoffset: 0; stroke-linejoin: miter; stroke-miterlimit: 4; fill: rgb(0,0,0); fill-rule: evenodd; opacity: 1;" vector-effect="non-scaling-stroke"  transform=" translate(-11.6, -11.6)" d="M 10 0.5 C 4.75329 0.5 0.5 4.75329 0.5 10 C 0.5 15.2467 4.75329 19.5 10 19.5 C 12.082 19.5 14.0076 18.8302 15.5731 17.6944 L 20.2929 22.4142 C 20.6834 22.8047 21.3166 22.8047 21.7071 22.4142 L 22.4142 21.7071 C 22.8047 21.3166 22.8047 20.6834 22.4142 20.2929 L 17.6944 15.5731 C 18.8302 14.0076 19.5 12.082 19.5 10 C 19.5 4.75329 15.2467 0.5 10 0.5 Z M 3.5 10 C 3.5 6.41015 6.41015 3.5 10 3.5 C 13.5899 3.5 16.5 6.41015 16.5 10 C 16.5 13.5899 13.5899 16.5 10 16.5 C 6.41015 16.5 3.5 13.5899 3.5 10 Z" stroke-linecap="round" />
</g>
</g>
</g>
</svg>