<?xml version="1.0" encoding="UTF-8"?>
<svg xmlns="http://www.w3.org/2000/svg" viewBox="0 0 16.75 16.75">
  <defs>
    <style>
      .cls-1 {
        fill: #fff;
      }

      .cls-1, .cls-2, .cls-3 {
        stroke: #27ad56;
      }

      .cls-1, .cls-3 {
        stroke-linecap: square;
        stroke-linejoin: bevel;
        stroke-width: .75px;
      }

      .cls-2 {
        fill-rule: evenodd;
        stroke-miterlimit: 10;
      }

      .cls-2, .cls-3 {
        fill: none;
      }
    </style>
  </defs>
  <g id="Calque_1" data-name="Calque 1">
    <path class="cls-1" d="M8.38,16.38c4.42,0,8-3.58,8-8S12.79.38,8.38.38.38,3.96.38,8.38s3.58,8,8,8ZM12.23,6.57c.24-.34.17-.8-.17-1.05-.34-.24-.8-.17-1.05.17l-3.48,4.79-1.88-1.88c-.29-.3-.76-.31-1.06-.02s-.31.76-.02,1.06c0,0,.01.01.02.02l2.5,2.5c.29.29.77.29,1.06,0,.03-.03.05-.06.08-.09,0,0,4-5.5,4-5.5Z"/>
  </g>
  <g id="Calque_2" data-name="Calque 2">
    <path class="cls-2" d="M9.2,9.21c.38-.41.8-.8,1.23-1.15-.15.28-.34.56-.6.75.21-.37.41-.74.62-1.12"/>
    <path class="cls-2" d="M11.42,6.3c-.12.07-.22.19-.31.3-.27.31-.58.58-.92.81"/>
    <path class="cls-2" d="M11.64,6.1c-.09,0-.17.08-.22.16-.12.17-.23.34-.33.52"/>
    <path class="cls-2" d="M11.54,5.91c-.04.16-.01.33.08.46"/>
    <path class="cls-2" d="M11.68,6.05l.08.32"/>
    <path class="cls-2" d="M11.71,5.87c-.01.21,0,.42.05.62"/>
    <path class="cls-2" d="M11.74,5.76c.01.18,0,.36-.01.54,0,.06-.02.14-.08.16"/>
    <path class="cls-2" d="M8.71,9.63c-.26.09-.41.36-.5.61-.04.11-.07.23-.1.34"/>
    <path class="cls-2" d="M8.23,10.83c.18-.38.37-.75.58-1.12.03-.05.07-.1.12-.09-.1.27-.21.49-.31.75-.02.04-.03.09-.05.13"/>
    <path class="cls-2" d="M8.52,10.03c-.19.21-.31.48-.4.75s-.24.53-.32.81"/>
    <path class="cls-2" d="M7.62,11.7c0,.07-.03.13-.08.18-.05-.07-.09-.14-.14-.21"/>
    <path class="cls-2" d="M7.09,11.14c-.03-.09-.07-.17-.14-.24"/>
    <path class="cls-2" d="M7.67,11.48l-.3-.44c-.04-.05-.08-.11-.14-.13"/>
    <path class="cls-2" d="M7.49,11.84c-.35-.27-.55-.69-.74-1.09"/>
    <path class="cls-2" d="M7.87,11.65c-.33-.19-.61-.48-.78-.83"/>
    <path class="cls-2" d="M6.75,10.51l-.35-.27c-.35-.27-.71-.54-1.04-.84"/>
    <path class="cls-2" d="M6.78,10.65c-.05-.11-.13-.2-.21-.29-.21-.22-.41-.45-.62-.67"/>
    <path class="cls-2" d="M7.28,11.02c-.13-.02-.23-.11-.33-.19-.25-.21-.53-.41-.82-.57"/>
    <path class="cls-2" d="M7.92,11.71c-.18-.15-.31-.36-.51-.48"/>
    <path class="cls-2" d="M5.19,9.44c0-.05-.03-.1-.06-.14-.13-.18-.27-.36-.43-.52"/>
    <path class="cls-2" d="M5.44,9.27c-.11-.17-.25-.31-.41-.43"/>
    <path class="cls-3" d="M4.79,9.36c.16.2.39.35.64.42"/>
    <path class="cls-3" d="M8.11,11.49c.05.07.06.17.02.24"/>
    <path class="cls-3" d="M8.64,10.62c.05-.31.41-.47.53-.75"/>
    <path class="cls-3" d="M9.44,9.76c0-.09,0-.18-.03-.27"/>
    <path class="cls-3" d="M8.88,9.11c-.03-.08.03-.16.09-.21.04-.03.09-.07.13-.04"/>
    <path class="cls-3" d="M10.09,7.78c-.02-.18.04-.37.12-.54.05-.1.12-.22.23-.23"/>
    <path class="cls-3" d="M11.91,6c-.02-.1-.09-.2-.17-.26"/>
  </g>
</svg>